# xmcd
#
# Track frame offsets: 
#        150
#        12742
#        32575
#        47135
#        66525
#        100110
#        128125
#        144407
#        167910
#        196670
#        213762
#        235292
#
# Disc length: 3591 seconds
#
# Revision: 3
# Processed by: cddbd v1.5.2PL0 Copyright (c) Steve Scherf et al.
# Submitted via: ExactAudioCopyFreeDBPlugin 1.0
#
DISCID=a80e050c
DTITLE=Dr. John - All By Hisself - Live At The Lonestar
DYEAR=2003
DGENRE=Blues
TTITLE0=Swanee River Boogie
TTITLE1=Stagger Lee
TTITLE2=Average Kind Of Guy
TTITLE3=Sick And Tired
TTITLE4=Such A Night
TTITLE5=Qualified
TTITLE6=Something You Got
TTITLE7=Junco Partner
TTITLE8=Travelin' Mood and Let's Make A Better World
TTITLE9=Right Place Wrong Time
TTITLE10=Iko Iko
TTITLE11=Rockin' Pneumonia and High Blood Pressure and Happy Times and Don't
TTITLE11=You Just Know It and Don't You Know Yockomo
EXTD=YEAR: 2003
EXTT0=
EXTT1=
EXTT2=
EXTT3=
EXTT4=
EXTT5=
EXTT6=
EXTT7=
EXTT8=
EXTT9=
EXTT10=
EXTT11=
PLAYORDER=
